<svg xmlns="http://www.w3.org/2000/svg" width="39" height="22" viewBox="0 0 39 22" fill="none">
<path d="M36.6742 7.93335C37.495 9.26668 38.0001 10.8667 38.0001 12.5333C38.0001 15 36.9899 17.2 35.4114 18.7333" stroke="#FEFEFE" stroke-width="2" stroke-miterlimit="10" stroke-linecap="round" stroke-linejoin="round"/>
<path d="M28.4027 21H12.1758C9.33448 21 6.87202 19.4666 5.4198 17.1333" stroke="#FEFEFE" stroke-width="2" stroke-miterlimit="10" stroke-linecap="round" stroke-linejoin="round"/>
<path d="M3.52563 3.26667C4.97785 1.86667 6.93519 1 9.01881 1H10.471" stroke="#FEFEFE" stroke-width="2" stroke-miterlimit="10" stroke-linecap="round" stroke-linejoin="round"/>
<path d="M14.5751 1H26.8242C31.244 1 34.843 4.8 34.843 9.46667C34.843 14.1333 31.244 17.9333 26.8242 17.9333H9.01877C4.59898 17.9333 1 14.1333 1 9.46667C1 8.93333 1.06314 8.4 1.12628 7.86667" stroke="#FEFEFE" stroke-width="2" stroke-miterlimit="10" stroke-linecap="round" stroke-linejoin="round"/>
</svg>