<svg xmlns="http://www.w3.org/2000/svg" width="25" height="25" viewBox="0 0 25 25" fill="none">
<path d="M22.7273 0H2.27273C1.01705 0 0 1.01705 0 2.27273V22.7273C0 23.983 1.01705 25 2.27273 25H22.7273C23.983 25 25 23.983 25 22.7273V2.27273C25 1.01705 23.9818 0 22.7273 0ZM20.1216 8.75795L11.5307 17.3489C11.317 17.5625 11.0284 17.6818 10.7273 17.6818C10.4261 17.6818 10.1364 17.5625 9.92386 17.3489L6 13.425C5.55568 12.9807 5.55568 12.2625 6 11.8182C6.44432 11.3739 7.1625 11.3739 7.60682 11.8182L10.7273 14.9386L18.5148 7.15114C18.9591 6.70682 19.6773 6.70682 20.1216 7.15114C20.5659 7.59545 20.5659 8.31364 20.1216 8.75795Z" fill="white"/>
</svg>