<svg xmlns="http://www.w3.org/2000/svg" width="28" height="24" viewBox="0 0 28 24" fill="none">
<path d="M20.9999 9.62498C22.6561 9.62498 23.9999 8.33162 23.9999 6.73748C23.9999 5.14333 22.6561 3.84998 20.9999 3.84998C19.3436 3.84998 17.9999 5.14333 17.9999 6.73748C17.9999 8.33162 19.3436 9.62498 20.9999 9.62498Z" fill="white"/>
<path d="M26.25 0H1.75C0.775 0 0 0.763985 0 1.70242V21.3976C0 22.336 0.775 23.1 1.75 23.1H26.25C27.225 23.1 28 22.336 28 21.3976V1.70242C28 0.763985 27.225 0 26.25 0ZM19.8062 11.8929C19.6187 11.6823 19.3313 11.5199 19.0063 11.5199C18.6875 11.5199 18.4625 11.6643 18.2062 11.8628L17.0375 12.8133C16.7938 12.9817 16.6 13.096 16.3188 13.096C16.05 13.096 15.8063 12.9998 15.6313 12.8494C15.5688 12.7952 15.4562 12.693 15.3625 12.6027L12 9.10164C11.75 8.82492 11.375 8.65047 10.9563 8.65047C10.5375 8.65047 10.15 8.84898 9.90625 9.11969L2 18.2995V2.62883C2.0625 2.21977 2.39375 1.925 2.81875 1.925H25.175C25.6062 1.925 25.9563 2.2318 25.9813 2.64688L26 18.3116L19.8062 11.8929Z" fill="white"/>
</svg>