<svg xmlns="http://www.w3.org/2000/svg" width="25" height="25" viewBox="0 0 25 25" fill="none">
<path d="M22.8516 3.32031H10.3516V4.88281H22.8516V3.32031Z" fill="white"/>
<path d="M22.8516 11.7188H10.3516V13.2812H22.8516V11.7188Z" fill="white"/>
<path d="M22.8516 20.1172H10.3516V21.6797H22.8516V20.1172Z" fill="white"/>
<path d="M4.10156 23.6328C5.60547 23.6328 6.83594 22.4023 6.83594 20.8984C6.83594 19.3945 5.60547 18.1641 4.10156 18.1641C2.59766 18.1641 1.36719 19.3945 1.36719 20.8984C1.36719 22.4023 2.59766 23.6328 4.10156 23.6328ZM4.10156 19.7266C4.74609 19.7266 5.27344 20.2539 5.27344 20.8984C5.27344 21.543 4.74609 22.0703 4.10156 22.0703C3.45703 22.0703 2.92969 21.543 2.92969 20.8984C2.92969 20.2539 3.45703 19.7266 4.10156 19.7266Z" fill="white"/>
<path d="M4.10156 15.2344C5.60547 15.2344 6.83594 14.0039 6.83594 12.5C6.83594 10.9961 5.60547 9.76562 4.10156 9.76562C2.59766 9.76562 1.36719 10.9961 1.36719 12.5C1.36719 14.0039 2.59766 15.2344 4.10156 15.2344ZM4.10156 11.3281C4.74609 11.3281 5.27344 11.8555 5.27344 12.5C5.27344 13.1445 4.74609 13.6719 4.10156 13.6719C3.45703 13.6719 2.92969 13.1445 2.92969 12.5C2.92969 11.8555 3.45703 11.3281 4.10156 11.3281Z" fill="white"/>
<path d="M4.10156 6.83594C5.60547 6.83594 6.83594 5.60547 6.83594 4.10156C6.83594 2.59766 5.60547 1.36719 4.10156 1.36719C2.59766 1.36719 1.36719 2.59766 1.36719 4.10156C1.36719 5.60547 2.59766 6.83594 4.10156 6.83594ZM4.10156 2.92969C4.74609 2.92969 5.27344 3.45703 5.27344 4.10156C5.27344 4.74609 4.74609 5.27344 4.10156 5.27344C3.45703 5.27344 2.92969 4.74609 2.92969 4.10156C2.92969 3.45703 3.45703 2.92969 4.10156 2.92969Z" fill="white"/>
</svg>