<svg xmlns="http://www.w3.org/2000/svg" width="25" height="25" viewBox="0 0 25 25" fill="none">
<path fill-rule="evenodd" clip-rule="evenodd" d="M12.5 6.25C9 6.25 6.25 9 6.25 12.5C6.25 16 9 18.75 12.5 18.75C16 18.75 18.75 16 18.75 12.5C18.75 9 16 6.25 12.5 6.25ZM12.5 0C5.625 0 0 5.625 0 12.5C0 19.375 5.625 25 12.5 25C19.375 25 25 19.375 25 12.5C25 5.625 19.375 0 12.5 0ZM12.5 22.5C7 22.5 2.5 18 2.5 12.5C2.5 7 7 2.5 12.5 2.5C18 2.5 22.5 7 22.5 12.5C22.5 18 18 22.5 12.5 22.5Z" fill="white"/>
</svg>