<svg xmlns="http://www.w3.org/2000/svg" width="26" height="20" viewBox="0 0 26 20" fill="none">
<path d="M0.8125 4.07202H8.04956C8.41309 5.47518 9.67879 6.51904 11.1941 6.51904C12.7094 6.51904 13.9751 5.47518 14.3386 4.07202H25.1875C25.6361 4.07202 26 3.70809 26 3.25952C26 2.81095 25.6361 2.44702 25.1875 2.44702H14.3386C13.9751 1.04386 12.7094 0 11.1941 0C9.67879 0 8.41309 1.04386 8.04956 2.44702H0.8125C0.363932 2.44702 0 2.81095 0 3.25952C0 3.70809 0.363932 4.07202 0.8125 4.07202ZM11.1941 1.625C12.0955 1.625 12.8286 2.35815 12.8286 3.25952C12.8286 4.16089 12.0955 4.89404 11.1941 4.89404C10.2927 4.89404 9.55957 4.16089 9.55957 3.25952C9.55957 2.35815 10.2927 1.625 11.1941 1.625Z" fill="white"/>
<path d="M25.1875 8.94702H23.4475C23.084 7.54386 21.8183 6.5 20.303 6.5C18.7877 6.5 17.522 7.54386 17.1584 8.94702H0.8125C0.363932 8.94702 0 9.31095 0 9.75952C0 10.2081 0.363932 10.572 0.8125 10.572H17.1584C17.522 11.9752 18.7877 13.019 20.303 13.019C21.8183 13.019 23.084 11.9752 23.4475 10.572H25.1875C25.6361 10.572 26 10.2081 26 9.75952C26 9.31095 25.6361 8.94702 25.1875 8.94702ZM20.303 11.394C19.4016 11.394 18.6685 10.6609 18.6685 9.75952C18.6685 8.85815 19.4016 8.125 20.303 8.125C21.2043 8.125 21.9375 8.85815 21.9375 9.75952C21.9375 10.6609 21.2043 11.394 20.303 11.394Z" fill="white"/>
<path d="M25.1875 15.447H9.44465C9.08118 14.0439 7.81555 13 6.30111 13C4.7858 13 3.52011 14.0439 3.15657 15.447H0.8125C0.363932 15.447 0 15.811 0 16.2595C0 16.7081 0.363932 17.072 0.8125 17.072H3.15657C3.52011 18.4752 4.7858 19.519 6.30111 19.519C7.81555 19.519 9.08118 18.4752 9.44465 17.072H25.1875C25.6361 17.072 26 16.7081 26 16.2595C26 15.811 25.6361 15.447 25.1875 15.447ZM6.30111 17.894C5.39974 17.894 4.66659 17.1609 4.66659 16.2595C4.66659 15.3582 5.39974 14.625 6.30111 14.625C7.20142 14.625 7.93457 15.3582 7.93457 16.2595C7.93457 17.1609 7.20142 17.894 6.30111 17.894Z" fill="white"/>
</svg>